<?xml version="1.0" encoding="utf-8"?>
<svg id="master-artboard" xmlns="http://www.w3.org/2000/svg" viewBox="0 0 500 500" width="500px" height="500px"><rect id="ee-background" x="0" y="0" width="500" height="500" style="fill: white; fill-opacity: 0; pointer-events: none;"/><defs><linearGradient id="gradient-0" gradientUnits="userSpaceOnUse" x1="237.5367889404297" y1="140.7458038330078" x2="237.5367889404297" y2="366.8487548828125">
                <stop offset="0" style="stop-color: #000000"/>
                <stop offset="1" style="stop-color: #000000"/>
              </linearGradient></defs><g><g transform="matrix(2.897005558013916, 0, 0, 2.897005558013916, -38.912715911865234, -38.124893188476555)"><path d="&#10;                M 0, 82.5&#10;                C 0, 57.74999999999999 57.74999999999999, 0 82.5, 0&#10;                S 165, 57.74999999999999 165, 82.5&#10;                    107.25, 165 82.5, 165&#10;                    0, 107.25 0, 82.5&#10;            " fill="#12AB53" transform="rotate(&#10;                -2,&#10;                100,&#10;                100&#10;            ) translate(&#10;                17.5&#10;                17.5&#10;            )"/></g><path d="M 147.79129028320312 146.32594299316406 L 150.8771209716797 364.4853210449219 L 164.00820922851562 368.03173828125 L 166.7013702392578 188.74464416503906 L 230.11672973632812 269.15966796875 L 249.35400390625 269.15966796875 L 309.55517578125 186.96763610839844 L 308.4401550292969 366.8487548828125 L 323.2777404785156 360.8080139160156 L 324.3927917480469 150.98739624023438 L 307.65234375 144.2897186279297 L 240.4237518310547 251.03993225097656 L 163.48216247558594 140.7458038330078 L 147.79129028320312 146.32594299316406 Z" style="fill-opacity: 0; stroke: rgb(255, 253, 240); stroke-opacity: 1; stroke-width: 29; paint-order: fill; fill: rgb(255, 255, 255);" transform="matrix(1.090592384338379, 0, 0, 1.090592384338379, -8.91399097442627, -26.143373489379883)"/></g></svg>